<?xml version="1.0" encoding="utf-8"?>
<!-- Generator: Adobe Illustrator 25.0.0, SVG Export Plug-In . SVG Version: 6.00 Build 0)  -->
<svg version="1.1" id="Layer_1" xmlns="http://www.w3.org/2000/svg" xmlns:xlink="http://www.w3.org/1999/xlink" x="0px" y="0px"
	 viewBox="0 0 20 20" style="enable-background:new 0 0 20 20;" xml:space="preserve">
<style type="text/css">
	.st0{fill:#444444;}
</style>
<g>
	<path class="st0" d="M17.4,14.3c-0.1-2.3-1.5-4.2-2.9-5.8c-0.8-0.8-1.4-1.8-2.1-2.6C12,5.5,11.6,5,11.1,4.8c0,0,0,0,0,0
		c0.6-1,1.4-2.3,2.4-2.8c0,0,0,0,0.1,0c0.2-0.1,0.1-0.4-0.1-0.3c-0.8,0.3-1-0.7-1.7-0.6c-0.3,0-0.5,0.2-0.8,0.3
		c-0.6,0.4-1.2,0.2-1.8-0.1c-0.6-0.3-1,0.2-1.4,0.6c-0.3,0.4-0.9,0-1.3,0c-0.2,0-0.4,0-0.5,0.1c0,0,0,0-0.1,0c0,0,0,0.1-0.1,0.1
		c0,0,0,0,0,0c0,0,0,0,0,0c0,0,0,0.1-0.1,0.1c0,0,0,0,0.1,0c0,0.4,0.4,0.8,0.7,1.1c0.4,0.5,0.7,1.1,1.3,1.4C7.3,5.3,6.9,5.9,6.5,6.5
		C5.9,7.2,5.3,8,4.7,8.8c-1.1,1.5-2,3.2-2.2,5.1c-0.1,1.7,0.7,3.5,2,4.6c0.4,0.3,0.8,0.4,1.2,0.5c0.5,0.1,1,0.3,1.5,0.4
		c0.5,0.1,1,0.2,1.6,0.2c0.9,0.2,2-0.1,2.8-0.3c1-0.2,1.9-0.5,2.8-1C16,17.4,17.5,16.1,17.4,14.3z M7.1,3.1C6.9,2.9,6.7,2.6,6.5,2.4
		C6.4,2.3,6.2,2.2,6.1,2.1c0.6-0.2,1.2,0.4,1.8,0C8.4,1.9,8.4,1.3,9,1.4c0.4,0.1,0.7,0.3,1.1,0.4C10.9,2,11.5,1,12.2,1.4
		c0.4,0.2,0.6,0.5,0.9,0.5c-0.7,0.4-1.4,1.1-1.8,1.9c0.1-0.3,0.1-0.6,0.3-0.9c0,0,0-0.1-0.1,0C11,3.3,10.9,4,10.6,4.5c0,0,0,0,0,0
		c0,0-0.1,0-0.1,0c0-0.8,0.6-1.6,0.7-2.4c0,0,0-0.1-0.1,0c-0.4,0.8-1,1.5-1.1,2.4c-0.1,0-0.2,0-0.4,0c0.2-0.2,0.2-0.6,0.2-0.8
		c0-0.5,0-1-0.1-1.4c0,0-0.1,0-0.1,0C9.7,2.6,9.7,3,9.7,3.4c0,0.2,0,0.5-0.1,0.7c0,0.1-0.1,0.2,0,0.3c-0.1,0-0.1,0-0.2,0
		c-0.1,0-0.1,0-0.2,0c0,0,0-0.1,0-0.1C8.7,3.7,9,2.8,8.6,2.2c0,0,0,0,0,0c0,0.7-0.1,1.7,0.3,2.3c-0.1,0-0.1,0-0.2,0c0,0,0,0,0,0
		C8.4,3.8,8.1,3,7.6,2.6c0,0-0.1,0-0.1,0.1C7.7,3,7.9,3.4,8,3.7C8.1,4,8.2,4.3,8.4,4.5c0,0,0,0,0,0c0,0,0,0-0.1-0.1
		C7.8,4.1,7.5,3.6,7.1,3.1z M16.3,16.3c-0.5,0.6-1.2,1.1-2,1.5c-0.8,0.4-1.7,0.7-2.5,0.9c-0.5,0.1-1,0.2-1.5,0.2c0,0,0,0,0,0
		c0.1-0.1,0.3-0.1,0.4-0.2c0.4-0.2,0.7-0.5,1.1-0.8c0.4-0.3,0.9-0.6,1.3-0.9c0.1,0,0-0.1,0-0.1c-0.8,0-1.5,0.6-2.2,1.1
		c-0.5,0.3-1,0.6-1.5,0.8c-0.2,0.1-0.4,0.1-0.6,0.1c-0.5,0-1-0.1-1.5-0.2c-0.5-0.1-0.9-0.3-1.4-0.3c-0.5-0.1-0.9-0.2-1.3-0.6
		c-1-1-1.5-2.3-1.5-3.6c0,0,0.1,0,0.1,0c0.5-0.7,0.9-1.4,1.7-1.8c0.5-0.3,1-0.6,1.3-1c0,0,0,0,0,0C5.7,11.8,5,12,4.4,12.4
		c-0.5,0.4-0.9,1-1.3,1.6c0-0.3,0-0.6,0.1-1c0-0.2,0.1-0.4,0.2-0.7c0,0,0,0,0,0c0.2-0.2,0.3-0.3,0.4-0.5C4,11.5,4.3,11.2,4.6,11
		c0.5-0.3,1-0.5,1.5-0.8c0.1,0,0-0.1-0.1-0.1C5.6,10.5,5,10.7,4.4,11c-0.4,0.3-0.7,0.7-1,1.1c0.2-0.6,0.5-1.2,0.9-1.8
		C4.7,10,5.1,9.6,5.5,9.3c0.5-0.3,1-0.6,1.6-0.9c0,0,0,0,0,0C6.4,8.6,5.5,8.9,4.9,9.5c0.2-0.3,0.5-0.7,0.7-1c0.5-0.7,1-1.4,1.6-2
		c0.4-0.5,0.8-1,1.1-1.6c0,0,0,0,0,0c0.1,0.1,0.3,0.1,0.5,0.1C8.3,5.5,8,6,7.7,6.5C7.4,7,7,7.7,6.9,8.3c0,0,0,0.1,0.1,0
		c0.4-0.5,0.6-1.1,0.9-1.6C8.2,6.1,8.6,5.5,9,4.9c0.1,0,0.1,0,0.2,0C9,5.3,9.1,5.8,9.1,6.2C9.2,7,8.9,7.6,9,8.4c0,0,0.1,0.1,0.1,0
		c0.1-0.6,0.3-1.2,0.3-1.7c0.1-0.5-0.1-1.2,0.1-1.7c0,0,0,0,0,0c0.1,0,0.1,0,0.2,0c0.1,0.5,0.3,1,0.4,1.5c0.1,0.6,0.2,1.1,0.3,1.7
		c0,0.1,0.1,0.1,0.2,0c0.1-1-0.1-2.3-0.5-3.2c0.1,0,0.2,0,0.3,0c0,0.1,0.1,0.2,0.2,0.3c0.2,0.3,0.3,0.5,0.5,0.8
		c0.3,0.6,0.6,1.1,1,1.6c0.1,0.1,0.2,0,0.2-0.1c-0.3-0.6-0.6-1.2-0.9-1.8C11.3,5.5,11.1,5.2,11,5c0.5,0.3,0.9,0.8,1.2,1.2
		c0.6,0.7,1.1,1.5,1.7,2.2c0.2,0.3,0.5,0.5,0.7,0.8C13.9,8.9,12.5,8.9,12,9c0,0,0,0,0,0c1,0.1,2.4,0,3,1c0,0,0.1,0,0.1,0
		c0,0,0-0.1,0-0.1c0.3,0.3,0.5,0.7,0.8,1.1c0.5,0.9,0.9,1.9,1.1,2.9C17.1,14.8,16.9,15.6,16.3,16.3z"/>
	<path class="st0" d="M10.6,13c0-0.9,0-1.8-0.1-2.8c0.1,0.1,0.2,0.3,0.3,0.4c0,0,0.1,0,0.1,0c0.2-0.3,0-0.7-0.3-0.8c0,0-0.1,0-0.1,0
		c0-0.2,0-0.5-0.1-0.7c0-0.2-0.2-0.2-0.3,0c0,0.2,0,0.5,0,0.7c-0.3,0-0.5,0.1-0.7,0.2c0,0,0,0,0,0c0-0.2-0.1-0.4-0.1-0.6
		c0,0,0,0,0,0c0,0.2-0.1,0.5-0.1,0.7c-0.7,0.5-1.3,1.5-0.6,2.2c0.2,0.2,0.5,0.4,0.8,0.5c0,0.2,0.1,0.5,0.1,0.7c0.1,0.6,0,1.1,0,1.7
		c0,0.1,0,0.2,0,0.3c0,0-0.1,0-0.1,0c-0.3-0.1-0.5-0.3-0.7-0.4c-0.1,0-0.2,0.1-0.2,0.2c0.1,0.5,0.6,0.7,1.1,0.7
		c0,0.1,0.1,0.2,0.2,0.3c0.1,0.1,0.2,0,0.2-0.1c0-0.1,0-0.2,0-0.2c0.2,0,0.3-0.1,0.5-0.1c0,0.1,0.1,0.3,0.2,0.4c0,0.1,0.1,0,0.1,0
		c0-0.1,0-0.3,0-0.4c0,0,0,0,0,0c0.8-0.4,1.2-1.3,0.8-2.1C11.2,13.4,10.9,13.1,10.6,13z M10.1,10.2c0,0.9,0.1,1.7,0.1,2.6
		c-0.2-0.1-0.4-0.2-0.6-0.3c-0.1-0.7-0.1-1.3-0.2-2C9.6,10.4,9.8,10.3,10.1,10.2z M8.9,12.1c-0.4-0.4-0.1-1,0.2-1.3
		c0,0.5,0.1,1.1,0.1,1.6C9.1,12.3,9,12.2,8.9,12.1z M10.1,15.6c-0.1,0-0.2,0.1-0.3,0.1c0-0.2-0.1-0.4-0.1-0.5c0-0.5,0-1-0.1-1.6
		c0-0.2,0-0.3-0.1-0.5c0.2,0.1,0.4,0.2,0.5,0.3c0,0.7-0.1,1.5,0,2.2C10.2,15.5,10.1,15.5,10.1,15.6z M10.6,15.3c0-0.6,0-1.2,0-1.7
		c0.3,0.2,0.5,0.5,0.5,0.9C11.1,14.8,10.9,15.1,10.6,15.3z"/>
	<path class="st0" d="M4.6,14c-0.3,0.4-1.1,1.3-0.8,1.9c0,0,0.1,0,0.1,0C4,15.5,4,15.2,4.1,15c0.2-0.4,0.4-0.7,0.7-1
		c0.4-0.5,1-1.2,1.6-1.4c0,0,0,0,0,0C5.7,12.7,5.1,13.4,4.6,14z"/>
	<path class="st0" d="M6.1,13.6c-0.4,0.5-0.8,0.9-1.2,1.4c-0.4,0.6-0.6,1.2-0.7,1.9c0,0,0,0.1,0.1,0c0.3-0.6,0.4-1.3,0.7-1.9
		C5.4,14.6,5.8,14.1,6.1,13.6C6.2,13.6,6.2,13.6,6.1,13.6z"/>
	<path class="st0" d="M6.1,15.2c-0.3,0.7-0.8,1.6-0.8,2.4c0,0,0.1,0.1,0.1,0c0.1-0.3,0.2-0.7,0.3-1C5.8,16.1,6,15.7,6.1,15.2
		C6.2,15.2,6.1,15.1,6.1,15.2z"/>
	<path class="st0" d="M15.6,11.6C15.7,11.6,15.7,11.6,15.6,11.6c-0.5-1.2-2-1.3-3-1.6c0,0,0,0,0,0c0.5,0.2,1,0.3,1.5,0.5
		C14.8,10.7,15.2,11.1,15.6,11.6z"/>
	<path class="st0" d="M15.8,13c0,0.1,0.1,0,0.1,0c-0.4-1.3-2-1.6-3.2-1.9c0,0,0,0,0,0c0.6,0.1,1.1,0.3,1.6,0.6
		C15,11.9,15.4,12.4,15.8,13z"/>
	<path class="st0" d="M16,14.4C16,14.5,16.1,14.4,16,14.4c-0.3-1.1-1.4-1.9-2.5-1.9c0,0,0,0,0,0C14.7,12.6,15.3,13.5,16,14.4z"/>
	<path class="st0" d="M15.3,15.1c-0.5-0.4-1.1-0.7-1.7-0.8c0,0,0,0,0,0c0.6,0.1,1.1,0.4,1.5,0.8c0.5,0.4,0.7,0.8,0.9,1.4
		c0,0,0.1,0,0.1,0C16.1,16,15.7,15.4,15.3,15.1z"/>
	<path class="st0" d="M13.8,16.1C13.8,16.1,13.7,16.2,13.8,16.1c0.5,0.4,0.8,0.9,0.6,1.5c0,0,0.1,0.1,0.1,0
		C14.8,17,14.4,16.4,13.8,16.1z"/>
</g>
</svg>
