<?xml version="1.0" encoding="utf-8"?>
<!-- Generator: Adobe Illustrator 25.0.0, SVG Export Plug-In . SVG Version: 6.00 Build 0)  -->
<svg version="1.1" id="Layer_1" xmlns="http://www.w3.org/2000/svg" xmlns:xlink="http://www.w3.org/1999/xlink" x="0px" y="0px"
	 viewBox="0 0 30 30" style="enable-background:new 0 0 30 30;" xml:space="preserve">
<style type="text/css">
	.st0{fill:#444444;}
</style>
<g>
	<path class="st0" d="M26.8,21.3c-0.2-3.5-2.3-6.5-4.6-9c-1.2-1.3-2.1-2.8-3.3-4.1c-0.5-0.6-1.2-1.3-1.9-1.7c0,0,0,0,0.1-0.1
		c0.9-1.6,2.1-3.5,3.8-4.4c0,0,0.1,0,0.1,0c0.3-0.1,0.2-0.6-0.1-0.5c-1.2,0.5-1.6-1.1-2.7-0.9c-0.5,0.1-0.8,0.3-1.2,0.5
		c-1,0.6-1.8,0.3-2.7-0.2c-1-0.5-1.6,0.3-2.2,0.9c-0.5,0.6-1.4,0-2,0c-0.3,0-0.6,0-0.8,0.2c0,0-0.1-0.1-0.1,0C9,2.2,9,2.2,9,2.3
		c0,0,0,0,0,0c0,0,0,0,0,0c0,0.1-0.1,0.1-0.1,0.2c0,0,0.1,0.1,0.1,0C9,3.2,9.6,3.7,10,4.3c0.6,0.8,1.2,1.7,2,2.2
		c-0.8,0.8-1.5,1.8-2.1,2.7c-0.9,1.2-1.8,2.4-2.7,3.6c-1.6,2.3-3.1,4.9-3.3,7.8c-0.2,2.6,1.1,5.5,3.1,7c0.5,0.4,1.2,0.6,1.9,0.7
		c0.8,0.2,1.6,0.4,2.4,0.6c0.8,0.2,1.6,0.3,2.4,0.3c1.4,0.3,3-0.1,4.3-0.4c1.5-0.3,3-0.8,4.4-1.5C24.6,26.2,26.9,24.1,26.8,21.3z
		 M10.8,4c-0.3-0.4-0.6-0.7-0.9-1.1C9.7,2.7,9.5,2.6,9.3,2.4c0.9-0.3,1.9,0.6,2.8,0.1c0.6-0.4,0.7-1.2,1.7-1.1
		c0.6,0.1,1.1,0.5,1.7,0.6c1.2,0.2,2.2-1.3,3.2-0.7c0.6,0.3,0.9,0.7,1.5,0.8C19,2.7,18,3.9,17.3,5.1c0.1-0.5,0.2-0.9,0.4-1.4
		c0-0.1-0.1-0.1-0.1-0.1c-0.8,0.6-0.9,1.7-1.4,2.5c0,0,0,0,0,0c0,0-0.1,0-0.1,0c0.1-1.3,0.9-2.4,1.1-3.7c0-0.1-0.1-0.1-0.1,0
		c-0.6,1.3-1.5,2.3-1.7,3.7c-0.2,0-0.4,0-0.5,0c0.3-0.3,0.2-0.9,0.3-1.2c0.1-0.7,0-1.5-0.2-2.2c0-0.1-0.1-0.1-0.1,0
		c-0.1,0.6-0.1,1.2-0.1,1.8c0,0.4-0.1,0.7-0.1,1.1c0,0.2-0.1,0.3-0.1,0.5c-0.1,0-0.2,0-0.2,0c-0.1,0-0.2,0-0.2,0c0-0.1,0-0.1,0-0.2
		c-0.7-1-0.3-2.3-0.9-3.3c0,0-0.1,0-0.1,0c0,1-0.2,2.6,0.5,3.5c-0.1,0-0.2,0-0.3,0c0,0,0,0,0-0.1c-0.5-0.9-0.8-2.2-1.7-2.8
		c0,0-0.1,0-0.1,0.1c0.4,0.5,0.6,1.1,0.8,1.6c0.2,0.4,0.3,0.9,0.5,1.3c0,0,0,0,0,0c0,0,0-0.1-0.1-0.1C11.9,5.5,11.4,4.7,10.8,4z
		 M25,24.4c-0.8,1-1.9,1.7-3,2.4c-1.2,0.7-2.6,1-3.9,1.3c-0.7,0.2-1.5,0.3-2.3,0.3c0,0,0,0,0,0c0.2-0.1,0.4-0.2,0.6-0.3
		c0.6-0.3,1.1-0.8,1.7-1.2c0.7-0.5,1.3-0.9,2.1-1.3c0.1,0,0.1-0.2-0.1-0.2c-1.2,0.1-2.4,1-3.4,1.6c-0.7,0.5-1.6,0.9-2.4,1.2
		c-0.3,0.1-0.6,0.1-0.9,0.2c-0.8,0-1.5-0.1-2.3-0.3C10.4,28,9.8,27.8,9,27.6c-0.8-0.2-1.5-0.4-2.1-0.9c-1.6-1.5-2.4-3.5-2.4-5.6
		c0,0,0.1,0,0.2,0c0.7-1.1,1.4-2.1,2.6-2.9c0.7-0.5,1.5-0.9,2-1.6c0,0,0,0,0,0c-0.8,0.9-1.8,1.2-2.8,1.9c-0.8,0.6-1.4,1.6-2,2.4
		c0-0.5,0.1-1,0.2-1.5c0.1-0.3,0.2-0.7,0.3-1c0,0,0,0,0,0c0.3-0.2,0.5-0.5,0.6-0.8c0.3-0.5,0.7-0.9,1.3-1.2c0.8-0.5,1.6-0.7,2.4-1.2
		c0.1-0.1,0-0.2-0.1-0.1c-0.8,0.5-1.8,0.8-2.6,1.3c-0.7,0.4-1.1,1.1-1.5,1.7c0.3-1,0.8-1.9,1.3-2.8c0.6-0.6,1.1-1.2,1.8-1.7
		c0.8-0.5,1.6-0.9,2.4-1.4c0,0,0,0,0,0c-1.1,0.3-2.4,0.9-3.4,1.7c0.3-0.5,0.7-1,1.1-1.5c0.8-1.1,1.6-2.1,2.4-3.2
		c0.6-0.7,1.3-1.6,1.7-2.4c0,0,0,0,0,0c0.2,0.1,0.5,0.1,0.7,0.1c-0.5,0.8-1.1,1.6-1.6,2.4c-0.5,0.8-1.1,1.8-1.2,2.7
		c0,0.1,0.1,0.1,0.1,0c0.6-0.8,0.9-1.7,1.4-2.5c0.5-0.9,1.1-1.8,1.7-2.6c0.1,0,0.2,0,0.3,0c-0.2,0.7-0.1,1.4-0.1,2
		c0.1,1.1-0.3,2.2-0.2,3.3c0,0.1,0.1,0.1,0.1,0c0.1-0.9,0.4-1.8,0.5-2.7c0.1-0.8-0.1-1.8,0.2-2.6c0,0,0,0,0,0c0.1,0,0.2,0,0.3,0
		c0.2,0.8,0.5,1.6,0.7,2.3c0.2,0.9,0.3,1.7,0.5,2.6c0,0.1,0.2,0.1,0.2,0c0.2-1.5-0.2-3.5-0.8-4.9c0.2,0,0.3,0,0.5,0
		c0,0.2,0.1,0.3,0.3,0.5c0.3,0.4,0.5,0.8,0.8,1.3c0.5,0.9,1,1.7,1.6,2.5c0.1,0.1,0.3,0,0.3-0.2c-0.5-0.9-1-1.9-1.5-2.8
		c-0.1-0.3-0.3-0.8-0.6-1.1c0.7,0.5,1.3,1.3,1.9,1.9c0.9,1.1,1.8,2.3,2.7,3.4c0.4,0.4,0.7,0.8,1.1,1.3c-1.1-0.6-3.2-0.4-4-0.4
		c0,0,0,0,0,0c1.6,0.2,3.7-0.1,4.6,1.5c0,0.1,0.1,0,0.1,0c0-0.1,0-0.1,0-0.2c0.4,0.5,0.8,1.1,1.2,1.7c0.8,1.4,1.4,2.9,1.7,4.5
		C26.3,22,26,23.3,25,24.4z"/>
	<path class="st0" d="M16.2,19.2c0-1.4-0.1-2.8-0.2-4.3c0.2,0.1,0.3,0.4,0.5,0.7c0,0,0.1,0.1,0.1,0c0.3-0.5-0.1-1-0.5-1.2
		c-0.1,0-0.1,0-0.2-0.1c0-0.4-0.1-0.8-0.1-1.2c0-0.3-0.4-0.3-0.4,0c0,0.4-0.1,0.7-0.1,1.1c-0.4,0.1-0.8,0.2-1.1,0.4c0,0,0,0,0,0
		c0-0.3-0.1-0.7-0.1-1c0,0,0,0,0,0c-0.1,0.4-0.1,0.8-0.1,1.2c-1.1,0.7-2,2.3-1,3.4c0.3,0.3,0.8,0.6,1.3,0.8c0,0.4,0.1,0.7,0.1,1.1
		c0.1,0.9,0,1.7,0,2.6c0,0.1,0,0.3,0,0.5c-0.1,0-0.1,0-0.2,0c-0.4-0.1-0.7-0.5-1.1-0.5c-0.2,0-0.3,0.1-0.3,0.3
		c0.1,0.8,0.9,1.1,1.7,1.1c0.1,0.2,0.1,0.3,0.3,0.4c0.1,0.1,0.3,0.1,0.3-0.1c0-0.1,0-0.2,0.1-0.4c0.3,0,0.5-0.1,0.7-0.2
		c0.1,0.2,0.1,0.4,0.2,0.6c0,0.1,0.2,0,0.2,0c0-0.2,0-0.5,0-0.7c0,0,0,0,0,0c1.2-0.6,1.9-2,1.3-3.3C17.2,19.9,16.7,19.5,16.2,19.2z
		 M15.4,14.9c0,1.3,0.2,2.7,0.2,4c-0.3-0.1-0.6-0.3-0.9-0.4c-0.1-1-0.2-2.1-0.3-3.1C14.6,15.2,15,15,15.4,14.9z M13.5,17.9
		c-0.6-0.6-0.2-1.5,0.3-2.1c0,0.8,0.1,1.7,0.2,2.5C13.9,18.2,13.7,18,13.5,17.9z M15.4,23.3c-0.1,0-0.3,0.1-0.4,0.1
		c0-0.3-0.1-0.6-0.1-0.8c0-0.8,0-1.6-0.1-2.4c0-0.3-0.1-0.5-0.1-0.8c0.3,0.1,0.6,0.3,0.8,0.4c0,1.1-0.2,2.3,0,3.4
		C15.5,23.2,15.5,23.2,15.4,23.3z M16.2,22.8c0-0.9,0-1.8,0-2.7c0.4,0.3,0.7,0.7,0.8,1.3C16.9,22,16.6,22.5,16.2,22.8z"/>
	<path class="st0" d="M7,20.8c-0.5,0.6-1.7,2-1.3,2.9c0,0.1,0.1,0,0.1,0c0.1-0.5,0.2-0.9,0.4-1.3c0.3-0.6,0.7-1.1,1.1-1.6
		C7.9,20,8.8,19,9.7,18.6c0,0,0,0,0,0C8.6,18.9,7.7,19.9,7,20.8z"/>
	<path class="st0" d="M9.3,20.3C8.7,21,8,21.7,7.5,22.5c-0.6,0.9-0.9,1.9-1.1,2.9c0,0.1,0.1,0.1,0.1,0c0.4-1,0.6-2,1.2-2.9
		C8.1,21.8,8.8,21.1,9.3,20.3C9.4,20.3,9.3,20.3,9.3,20.3z"/>
	<path class="st0" d="M9.2,22.7c-0.5,1.1-1.2,2.5-1.3,3.7c0,0.1,0.1,0.1,0.1,0c0.2-0.5,0.3-1.1,0.5-1.6c0.2-0.7,0.5-1.4,0.8-2.1
		C9.4,22.6,9.3,22.6,9.2,22.7z"/>
	<path class="st0" d="M24,17.1C24.1,17.2,24.2,17.1,24,17.1c-0.8-1.8-3.1-2-4.7-2.5c0,0,0,0,0,0c0.8,0.3,1.6,0.5,2.4,0.8
		C22.7,15.8,23.3,16.3,24,17.1z"/>
	<path class="st0" d="M24.3,19.3c0.1,0.1,0.2,0,0.2-0.1c-0.7-2-3.1-2.5-4.9-2.9c0,0,0,0,0,0c0.9,0.2,1.7,0.5,2.5,0.9
		C23.1,17.6,23.7,18.3,24.3,19.3z"/>
	<path class="st0" d="M24.6,21.5c0,0.1,0.1,0,0.1,0c-0.6-1.7-2.3-2.9-4-2.8c0,0,0,0.1,0,0.1C22.6,18.7,23.6,20,24.6,21.5z"/>
	<path class="st0" d="M23.5,22.6c-0.7-0.6-1.7-1-2.6-1.2c0,0,0,0,0,0c0.9,0.2,1.6,0.6,2.3,1.2c0.8,0.6,1,1.3,1.3,2.2
		c0,0.1,0.1,0.1,0.1,0C24.8,23.9,24.1,23.1,23.5,22.6z"/>
	<path class="st0" d="M21.2,24.1c-0.1,0-0.1,0.1-0.1,0.1c0.9,0.4,1.3,1.3,1,2.2c0,0.1,0.1,0.1,0.1,0C22.7,25.5,22.1,24.5,21.2,24.1z
		"/>
</g>
</svg>
